<svg width="1357" height="670" viewBox="0 0 1357 670" fill="none" xmlns="http://www.w3.org/2000/svg">
<path opacity="0.3" fill-rule="evenodd" clip-rule="evenodd" d="M633.086 220.435L599.41 127.909C599.045 126.869 598.392 125.095 597.451 122.589L598.332 122.233L600.286 127.591C608.853 151.428 614.277 166.479 616.557 172.744C618.134 177.078 625.862 198.292 633.88 220.145L633.086 220.435ZM649.976 215.898L648.191 203.19L649.007 203.075C649.593 207.207 650.2 211.471 650.808 215.756L649.976 215.898ZM673.099 214.508L673.592 207.464L674.424 207.508C674.265 209.84 674.101 212.198 673.942 214.557L673.099 214.508ZM741.195 246.383L746.301 242.005L747.078 242.902L742.01 247.281C741.742 246.969 741.468 246.673 741.195 246.383ZM761.226 278.127L766.086 276.37L804.818 262.337L805.311 263.497C787.912 269.791 772.073 275.538 761.691 279.254C761.527 278.871 761.379 278.482 761.226 278.099V278.127ZM765.725 337.235L799.334 345.062L884.407 364.885L883.958 366.051C834.564 354.557 781.312 342.15 777.897 341.274C776.299 340.864 771.641 339.753 765.473 338.303C765.56 337.93 765.643 337.575 765.725 337.219V337.235ZM759.551 355.844L761.921 356.938L761.527 357.973L759.102 356.829C759.25 356.473 759.392 356.15 759.551 355.811V355.844ZM747.636 375.94L752.283 379.454L751.577 380.324C750.236 379.301 748.682 378.135 746.963 376.811C747.193 376.497 747.417 376.196 747.636 375.908V375.94ZM719.762 401.029L729.22 416.129L728.475 416.578C725.646 412.046 722.165 406.496 719.012 401.478L719.762 401.029ZM702.861 409.238C709.976 428.772 717.376 448.984 717.376 448.984L738.113 505.772L737.194 506.122C725.618 474.471 712.499 438.552 711.75 436.303C710.94 433.878 706.063 420.524 702.041 409.539L702.861 409.238ZM678.939 414.925L679.563 419.342L678.704 419.446C678.49 417.952 678.277 416.468 678.074 415.018L678.939 414.925ZM642.166 412.325C640.622 418.931 639.166 425.187 637.875 430.726L636.747 430.49C637.552 427.206 639.188 420.261 641.126 412.041L642.166 412.325ZM604.019 392.945C589.789 411.756 578.049 427.278 578.049 427.278C578.049 427.278 534.314 485.062 504.749 524.15L503.802 523.4C537.921 478.275 587.539 412.632 590.276 409.222C591.726 407.389 596.942 400.536 603.225 392.256L604.019 392.945ZM589.827 378.803C572.697 393.624 558.839 405.621 558.839 405.621L513.177 445.152L512.373 444.2C543.783 416.999 572.264 392.354 574.503 390.504C576.183 389.114 581.973 384.134 589.138 377.916C589.378 378.239 589.608 378.524 589.844 378.803H589.827ZM572.368 347.541C544.209 357.672 497.388 374.638 497.388 374.638L403.044 408.653L402.721 407.722L403.268 407.52C415.615 403.065 532.289 360.791 535.568 359.609L571.99 346.397C572.127 346.78 572.253 347.169 572.385 347.541H572.368ZM567.661 326.782C547.482 329.518 515.52 333.962 497.869 336.409L497.733 335.314L525.596 331.445L567.53 325.594C567.585 325.977 567.634 326.371 567.678 326.782H567.661ZM569.473 292.581C550.022 288.005 517.238 280.36 494.224 274.996L494.454 273.901L515.799 278.871L569.752 291.399C569.67 291.793 569.582 292.187 569.478 292.581H569.473ZM576.889 271.356C546.24 256.924 484.192 227.851 484.192 227.851L371.448 174.878L371.815 173.964L377.446 176.618C391.605 183.252 525.081 245.765 528.825 247.527C530.237 248.189 551.412 258.09 577.436 270.273L576.889 271.356ZM586.538 255.337L576.347 247.598L577.026 246.624L587.266 254.363L586.538 255.337ZM414.313 530.274L414.548 530.553C386.411 554.914 336.776 597.872 327.461 605.934C314.611 617.038 203.147 713.369 194.571 720.774L125.742 780.26L125.195 779.39C125.195 779.39 184.468 728.376 191.478 722.317C196.152 718.278 206.418 709.372 222.275 695.598C278.542 646.644 309.079 620.089 313.888 615.933C318.398 612.03 332.277 600.094 342.731 591.063L342.589 590.905L413.738 529.059L414.581 530.034L414.313 530.274ZM525.289 149.385L525.026 149.084L526.001 148.241L558.204 185.282L557.23 186.131L556.568 185.37L556.453 185.474L534.145 159.707L525.251 149.417L525.289 149.385ZM836.54 165.311L824.111 176.082L783.227 211.618L782.379 210.644L836.015 164.036L836.863 165.01L836.54 165.311ZM419.299 294.256L419.37 293.238L503.687 299.258L503.611 300.353L486.475 299.127L419.299 294.256ZM289.172 284.951L288.548 284.913C228.629 280.808 195.804 278.517 190.072 278.039C181.468 277.311 116.252 272.654 110.647 272.249C106.907 271.975 96.8006 271.194 80.3268 269.906L80.5786 268.554C132.952 272.25 163.71 274.44 172.854 275.122L289.26 283.589L289.172 284.951ZM913.803 330.044C898.878 328.949 848.871 325.414 808.622 322.524L808.797 321.276L910.683 328.604L913.967 328.84L913.803 330.044ZM961.571 333.563L961.752 332.277C990.212 334.324 1021.41 336.562 1028.9 337.109L1176.36 347.869L1252.74 353.441C1252.62 354.125 1252.55 354.464 1252.55 354.464C1252.55 354.464 1186.87 349.539 1179.12 348.948L1144.88 346.534C1082.25 342.214 1048.25 339.871 1042.9 339.507C1034.89 338.926 1000.4 336.305 997.179 336.174C995.646 336.086 979.189 334.887 961.571 333.59V333.563ZM655.476 467.461C656.428 453.69 657.118 443.795 657.238 442.629C657.435 440.599 658.098 431.196 658.754 421.558H659.625C658.366 439.751 657.222 456.482 657.222 456.482C657.222 456.482 656.932 460.707 656.467 467.461H655.476ZM651.574 524.522V525.551H652.504C651.174 544.844 650.063 560.984 649.97 562.286C649.735 565.652 644.497 641.53 643.758 652.399C643.019 663.269 636.408 757.575 635.899 764.826C635.56 769.664 634.202 789.076 631.827 823.059L631.017 822.999C631.017 822.999 634.64 772.937 635.056 767.01C635.33 763.051 635.917 754.351 636.819 740.909C639.967 693.174 641.682 667.268 641.963 663.192C642.39 657.084 644.311 630.786 644.399 628.335C644.486 625.883 648.164 574.475 648.635 567.808C648.783 565.263 650.047 546.65 651.574 524.522ZM676.202 170.095L678.84 132.331L679.705 132.374C678.559 147.9 677.813 158.165 677.467 163.171C677.379 164.37 677.215 166.783 676.985 170.111L676.202 170.095ZM681.336 94.9718C681.467 92.8483 681.608 90.5679 681.758 88.1306C684.749 42.4746 686.424 17.4574 686.782 13.0789C687.329 6.51132 690.717 -43.2002 691.018 -47.4746C691.215 -50.3206 691.786 -58.0284 692.731 -70.5981L693.826 -70.527C691.133 -30.6104 689.544 -7.16391 689.059 -0.187653L682.398 95.043L681.336 94.9718ZM968.314 49.9836L969.102 50.8921L962.08 56.9617C932.161 82.6593 913.263 98.9069 905.385 105.704C901.784 108.813 888.917 119.934 872.678 134.022L872.011 133.25L961.44 56.0039C962.768 54.8436 965.06 52.8369 968.314 49.9836ZM1004.32 18.5574C1051.2 -22.2275 1077.06 -44.6761 1081.92 -48.7881C1089.74 -55.416 1148.44 -106.255 1153.49 -110.633C1156.86 -113.552 1166 -121.397 1180.9 -134.167L1181.65 -133.023C1134.54 -92.1582 1106.87 -68.1572 1098.63 -61.0204L1005.26 19.663L1004.32 18.5574ZM807.779 474.214L865.536 540.93C868.973 544.909 946.57 634.519 957.68 647.381L1072.52 780.277L1132 849.105L1131.13 849.653C1131.13 849.653 1080.11 790.418 1074.09 783.407C1070.05 778.733 1061.15 768.466 1047.37 752.605C998.414 696.328 971.848 665.785 967.674 660.976C961.44 653.757 934.655 622.61 932.099 619.775C929.543 616.94 877.079 556.107 870.254 548.231C866.91 544.356 836.945 509.789 806.838 475.035L807.779 474.214ZM458.102 71.717L407.751 13.4292C404.624 9.81705 395.319 -0.828003 379.838 -18.5059C333.004 -72.324 307.372 -101.838 302.942 -107.048C296.331 -114.869 245.475 -173.573 241.097 -178.625C238.178 -181.992 230.333 -191.129 217.563 -206.034L218.712 -206.778C259.596 -159.659 283.6 -131.985 290.726 -123.758L408.725 12.767C434.426 42.6862 450.674 61.5846 457.467 69.4621L458.852 71.0657L458.102 71.717ZM280.415 453.242C243.177 466.833 222.379 474.387 218.023 475.905C209.868 478.74 148.395 501.01 143.108 502.915C139.583 504.184 130.035 507.583 114.462 513.111L114.139 511.776C163.484 493.846 192.471 483.325 201.1 480.213L279.912 451.791L280.415 453.242ZM901.981 228.475L901.505 227.381C921.252 220.266 996.429 193.038 1008.36 188.736L1147.43 138.559L1219.47 112.584L1219.72 113.597C1219.72 113.597 1157.73 135.779 1150.4 138.422C1145.5 140.184 1134.75 144.09 1118.15 150.14C1059.16 171.667 1027.14 183.343 1022.1 185.167C1014.54 187.904 981.975 199.518 978.976 200.711C975.976 201.904 912.342 224.737 904.094 227.715L901.981 228.475ZM758.041 560.343C765.883 581.819 781.859 625.554 784.711 633.397C788.438 643.637 820.772 732.459 823.257 739.3L843.223 794.151L842.456 794.43C842.456 794.43 825.408 747.22 823.372 741.637C822.022 737.912 819.021 729.724 814.369 717.074C797.822 672.195 788.854 647.835 787.464 643.993C785.367 638.241 776.43 613.437 775.51 611.155C774.755 609.272 762.594 575.739 757.137 560.682L758.041 560.343ZM570.141 48.6427C566.7 39.2582 564.657 33.6502 564.011 31.8186C561.822 25.6012 544.718 -21.1986 543.252 -25.2213C542.277 -27.903 539.665 -35.1785 535.414 -47.0477L536.427 -47.4144C550.204 -9.84756 558.288 12.2197 560.678 18.7873L571.367 48.161L570.141 48.6427ZM578.679 499.543L579.806 500.091L536.64 592.092C534.407 596.848 484.099 704.196 476.869 719.57C469.639 734.944 406.995 868.277 402.179 878.534L363.49 960.87L362.625 960.323C362.625 960.323 396.011 889.611 399.962 881.227C402.589 875.637 408.347 863.324 417.235 844.289C448.749 776.675 465.858 739.986 468.561 734.221C472.617 725.59 490.18 688.45 491.718 684.964C493.256 681.478 527.5 608.779 531.933 599.355C534.32 594.27 557.438 544.893 578.679 499.543ZM750.236 134.131L751.216 134.679L730.489 178.928C730.112 179.727 726.817 186.776 721.831 197.432L720.813 196.885C734.764 167.156 750.159 134.268 750.159 134.268L750.236 134.131ZM770.579 90.8233L832.375 -40.6935C834.407 -45.0172 840.351 -57.8387 850.206 -79.158C880.319 -143.838 896.857 -179.256 899.819 -185.411C904.269 -194.65 937.211 -264.989 940.051 -271.031C941.945 -275.045 947.103 -285.925 955.524 -303.672L956.673 -302.923C930.267 -246.437 914.746 -213.258 910.109 -203.385C905.471 -193.511 879.89 -139.066 833.366 -40.0477C816.469 -4.39642 805.813 18.1342 801.398 27.5441C798.568 33.5645 785.603 61.2306 771.51 91.3159L770.579 90.8233ZM278.313 131.296L270.761 127.805C206.081 97.6956 170.663 81.1579 164.507 78.1915C155.269 73.7419 84.9296 40.7998 78.8874 37.9648C74.8738 36.0711 63.9935 30.9119 46.2463 22.4871L46.9906 21.3432C103.498 47.7341 136.681 63.2538 146.539 67.9023L278.822 130.059L278.313 131.296ZM965.266 453.614L949.306 446.083C944.419 443.784 898.56 422.324 854.722 401.784L855.165 400.618L942.044 441.349L965.742 452.464L965.266 453.614ZM1058.47 497.349L1058.93 496.167C1063.77 498.438 1067.44 500.156 1069.48 501.092L1228.45 575.783L1310.79 614.471C1310.41 615.052 1310.24 615.336 1310.24 615.336C1310.24 615.336 1239.53 581.951 1231.15 577.999C1225.56 575.372 1213.24 569.616 1194.21 560.732C1126.59 529.229 1089.91 512.126 1084.16 509.422C1079.95 507.479 1069.01 502.313 1058.48 497.349H1058.47ZM368.618 354.191L323.876 360.342C319.892 360.89 308.116 362.583 288.548 365.421C229.074 373.857 196.488 378.433 190.789 379.148C182.224 380.242 117.45 389.229 111.901 389.995C108.19 390.502 98.1415 391.841 81.7553 394.012L81.7224 392.633C133.709 385.361 164.248 381.098 173.341 379.843L323.849 359.155C342.709 356.637 357.59 354.645 368.493 353.178L368.618 354.191ZM962.934 272.271C942.64 275.051 918.499 278.335 913.518 279.019C910.234 279.473 886.443 282.784 858.027 286.73L857.879 285.499L906.19 278.811L962.775 270.968L962.934 272.271ZM1058.9 258.971L1058.75 257.718L1170.07 242.393L1245.94 231.995C1245.94 232.684 1245.97 233.034 1245.97 233.034C1245.97 233.034 1180.72 241.84 1173 242.886C1167.85 243.597 1156.52 245.183 1139.01 247.642L1058.9 258.971ZM637.224 125.167L636.227 118.052C635.801 115.016 634.482 106.049 632.27 91.1516C625.703 45.8715 622.138 21.0604 621.576 16.7185C620.739 10.1837 613.728 -39.1501 613.131 -43.3917C612.73 -46.2158 611.686 -53.878 610.001 -66.3784L611.095 -66.5262C616.758 -26.9307 620.078 -3.66849 621.056 3.26035C622.034 10.1892 627.405 48.4128 637.169 117.931C637.508 120.394 637.833 122.766 638.143 125.046L637.224 125.167ZM686.749 477.016L687.734 476.896C691.959 506.735 699.392 559.199 699.725 561.586C700.196 564.924 710.874 640.227 712.39 651.026C713.906 661.824 727.063 755.429 728.076 762.626C728.751 767.424 731.458 786.693 736.198 820.432L735.393 820.542C735.393 820.542 728.53 770.819 727.704 764.936C727.153 761.013 725.917 752.383 723.998 739.043C717.153 691.694 713.446 666 712.877 661.961C712.023 655.902 708.438 629.774 708.012 627.36C707.585 624.947 700.497 573.894 699.572 567.278C698.959 562.921 691.746 512.312 686.749 477.016ZM426.025 628.176C410.919 648.136 397.406 665.989 393.373 671.309L287.262 811.281L232.302 883.766L231.568 883.033C231.568 883.033 278.943 820.81 284.536 813.427C288.269 808.505 296.46 797.659 309.11 780.89C353.989 721.299 378.344 688.972 382.175 683.908C387.938 676.311 412.824 643.637 415.073 640.518C415.84 639.423 422.052 631.213 430.135 620.574L425.1 627.503L426.025 628.176ZM761.757 182.858L782.379 155.613L825.227 99.0985L826.141 99.5856L762.676 183.525L761.757 182.858ZM854.448 60.5465L899.151 1.57462C902.041 -2.23459 910.521 -13.5455 924.59 -32.3581C967.495 -89.3651 991.029 -120.572 995.192 -125.98C1001.46 -134.091 1048.28 -196.034 1052.34 -201.36C1055.03 -204.906 1062.34 -214.477 1074.27 -230.071L1075.23 -229.102C1037.65 -179.331 1015.57 -150.101 1009.01 -141.414L899.983 2.41202C876.847 32.7253 861.959 52.2567 855.318 61.0063L854.448 60.5465ZM958.025 535.118L957.209 536.12C938.333 521.797 916.868 505.471 912.292 502.017C909.101 499.598 886.098 482.21 858.684 461.478L859.461 460.521L906.173 495.876C908.259 497.453 932.455 515.771 958.025 535.118ZM1065.16 616.267L1158.38 686.956L1230.87 741.916L1230.14 742.644C1230.14 742.644 1167.94 695.253 1160.57 689.676C1155.64 685.951 1144.8 677.761 1128.02 665.108L1064.41 617.197L1065.16 616.267ZM521.239 205.844L502.762 191.861L370.474 91.5786L371.092 90.6919C390.178 105.247 402.816 114.872 409.004 119.568C418.324 126.606 486.836 178.435 521.863 204.93L521.239 205.844ZM288.395 29.7607C248.08 -0.592682 225.67 -17.5116 221.164 -20.9961C213.053 -27.2682 151.109 -74.0845 145.784 -78.1454C142.238 -80.8382 132.667 -88.1465 117.073 -100.07L118.041 -101.034C167.813 -63.4522 197.041 -41.3777 205.725 -34.81L289.26 28.5293L288.395 29.7607ZM341.182 515.738L340.438 514.539L372.696 494.519C400.98 477.115 418.841 466.105 426.277 461.489C432.56 457.587 468.72 435.071 499.615 415.822L500.195 416.753L373.188 495.565C369.77 497.688 359.699 504.026 342.977 514.578L341.16 515.716L341.182 515.738ZM230.468 584.698C213.212 595.42 194.313 607.187 191.61 608.862C188.432 610.836 179.797 616.146 165.706 624.794L165.115 623.551C194.739 605.063 216.235 591.654 229.604 583.324L230.468 584.698ZM949.744 137.36C948.048 138.422 946.86 139.172 946.417 139.473C943.729 141.263 886.213 176.826 878.781 181.451C873.423 184.773 805.924 226.844 766.666 251.249L766.059 250.154L872 184.248L949.131 136.26L949.744 137.36ZM990.409 112.152L989.774 111.002L1098.27 43.6841L1163.33 3.29318L1163.78 4.23453C1163.78 4.23453 1107.76 38.8186 1101.13 42.9288C1096.71 45.669 1087.01 51.7258 1072.01 61.0993C1028.68 88.2236 1001.48 105.241 990.409 112.152ZM787.967 509.882L787.135 510.38C779.117 497.595 768.713 481.001 759.223 465.873L760.071 465.364C769.277 480.043 780.151 497.398 787.967 509.882ZM818.824 559.139C830.449 577.698 843.277 598.184 846.348 603.093L906.069 698.679L937.003 748.177L936.313 748.61C936.313 748.61 909.818 705.98 906.671 700.94C904.57 697.572 899.931 690.189 892.754 678.79C867.238 638.316 853.401 616.351 851.241 612.895C848.001 607.707 834.094 585.3 832.725 583.264C832.058 582.268 825.2 571.295 817.948 559.676L818.824 559.139ZM597.714 207.557L560.607 148.181L561.411 147.715C574.379 168.652 582.601 181.904 586.078 187.471C587.512 189.77 592.246 197.323 598.409 207.174L597.714 207.557ZM518.514 81.5191C510.983 69.5515 506.604 62.5642 505.378 60.5575C501.958 54.9312 475.485 12.7123 473.213 9.08365C471.703 6.66095 467.635 0.0932922 461.009 -10.6193L461.923 -11.1666C483.213 22.6677 495.713 42.5549 499.424 48.4949L519.674 80.8679L518.514 81.5191ZM608.195 552.747C611.883 536.875 615.807 520.023 619.524 504.075L620.744 504.332L609.431 553.004L608.195 552.747ZM597.796 597.396L591.617 626.479L592.23 626.611C584.945 657.862 566.315 737.839 563.146 751.396C559.277 767.935 525.716 911.383 523.138 922.417C521.412 929.772 514.504 959.299 502.412 1011L501.449 1010.63C501.449 1010.63 519.417 934.517 521.524 925.492C522.932 919.476 526.003 906.237 530.735 885.775C547.493 813.089 556.597 773.651 558.045 767.459C560.234 758.155 569.675 718.202 570.447 714.442C571.219 710.682 589.603 632.51 591.989 622.369C592.503 620.234 594.654 610.892 597.812 597.396H597.796ZM705.872 134.465L706.966 134.657C702.396 154.316 699.074 168.589 698.79 169.815C698.565 170.762 696.447 179.902 693.317 193.399L692.178 193.202C697.159 171.928 702.637 148.416 705.888 134.465H705.872ZM725.159 51.9593L752.825 -66.1595C753.919 -70.8116 757.068 -84.5908 762.271 -107.497C778.274 -177.019 787.086 -215.102 788.706 -221.747C791.141 -231.708 808.737 -307.356 810.259 -313.852C811.269 -318.187 814.051 -329.903 818.605 -349L819.88 -348.507C805.796 -287.75 797.516 -252.067 795.038 -241.461C792.561 -230.854 778.854 -172.28 753.919 -65.7381C744.798 -27.3539 739.058 -3.10114 736.701 7.02029C735.568 11.8694 731.387 29.8209 726.198 52.1345L725.159 51.9593ZM394.227 251.626L279.84 224.863C275.188 223.769 261.409 220.62 238.503 215.417C168.981 199.414 130.898 190.607 124.253 188.998C114.292 186.563 38.6442 168.967 32.1478 167.446C27.8131 166.424 16.0972 163.636 -3 159.083L-2.50743 157.802C58.2504 171.886 93.9327 180.167 104.539 182.644L280.262 223.758C318.646 232.879 342.899 238.619 353.02 240.976L394.44 250.619L394.227 251.626ZM984.919 389.547L985.368 388.386C1021.63 396.837 1085.42 411.701 1097.39 414.498L1268.41 454.511L1356.99 475.238L1356.62 476.201C1356.62 476.201 1280.51 458.233 1271.49 456.126C1265.47 454.721 1252.23 451.651 1231.77 446.915C1159.08 430.156 1119.65 421.055 1113.45 419.61C1104.15 417.421 1064.2 407.974 1060.44 407.202C1057.56 406.617 1011.12 395.709 984.919 389.557V389.547Z" fill="white"/>
</svg>
